<svg xmlns="http://www.w3.org/2000/svg" xmlns:xlink="http://www.w3.org/1999/xlink" version="1.1" width="256" height="256" viewBox="0 0 256 256" xml:space="preserve">
<!-- <g style="stroke: none; stroke-width: 0; stroke-dasharray: none; stroke-linecap: butt; stroke-linejoin: miter; stroke-miterlimit: 10; fill: none; fill-rule: nonzero; opacity: 1;" transform="translate(1.4065934065934016 1.4065934065934016) scale(2.81 2.81)"> -->
<g style="stroke: none; stroke-width: 0; stroke-dasharray: none; stroke-linecap: butt; stroke-linejoin: miter; stroke-miterlimit: 10; fill: none; fill-rule: nonzero; opacity: 1;" transform="translate(1.4065934065934016 1.4065934065934016) scale(.2 .2)">
	<path d="M 81 41.6 H 70 c -1.1 0 -2 0.9 -2 2 s 0.9 2 2 2 h 11 c 1.1 0 2 -0.9 2 -2 S 82.1 41.6 81 41.6 z" style="stroke: none; stroke-width: 1; stroke-dasharray: none; stroke-linecap: butt; stroke-linejoin: miter; stroke-miterlimit: 10; fill: rgba(0, 42, 255, 1); fill-rule: nonzero; opacity: 1;" transform=" matrix(1 0 0 1 0 0) " stroke-linecap="round"/>
	<path d="M 81.7 28.4 H 70 c -1.1 0 -2 0.9 -2 2 s 0.9 2 2 2 h 11.7 c 1.1 0 2 -0.9 2 -2 S 82.8 28.4 81.7 28.4 z" style="stroke: none; stroke-width: 1; stroke-dasharray: none; stroke-linecap: butt; stroke-linejoin: miter; stroke-miterlimit: 10; fill: rgba(0, 42, 255, 1); fill-rule: nonzero; opacity: 1;" transform=" matrix(1 0 0 1 0 0) " stroke-linecap="round"/>
	<path d="M 74.1 15.2 h -7 c -1.1 0 -2 0.9 -2 2 s 0.9 2 2 2 h 7 c 1.1 0 2 -0.9 2 -2 S 75.2 15.2 74.1 15.2 z" style="stroke: none; stroke-width: 1; stroke-dasharray: none; stroke-linecap: butt; stroke-linejoin: miter; stroke-miterlimit: 10; fill: rgba(0, 42, 255, 1); fill-rule: nonzero; opacity: 1;" transform=" matrix(1 0 0 1 0 0) " stroke-linecap="round"/>
	<path d="M 48.7 2 c -6.5 0 -13 1.6 -17.1 4.3 c -1.3 0.9 -2.8 1.4 -4.2 1.4 h -3.5 c -1.1 0 -2 0.9 -2 2 s 0.9 2 2 2 h 3.5 c 2.2 0 4.4 -0.7 6.4 -2 c 3.6 -2.4 9.8 -3.8 15.8 -3.6 l 24.5 0 c 2.2 0 4 1.8 4 4 v 1.2 c 0 2.2 -1.8 4 -4 4 c -1.1 0 -2 0.9 -2 2 s 0.9 2 2 2 H 82 c 2.2 0 4 1.8 4 4 v 1.2 c 0 2.2 -1.8 4 -4 4 h -0.3 c -1.1 0 -2 0.9 -2 2 s 0.9 2 2 2 c 2.2 0 4 1.8 4 4 v 1.2 c 0 2.2 -1.8 4 -4 4 H 81 c -1.1 0 -2 0.9 -2 2 s 0.9 2 2 2 c 2.2 0 4 1.8 4 4 v 1.2 c 0 2.2 -1.8 4 -4 4 l -23.3 0 c 0 0 0 0 0 0 c -0.7 0 -1.4 0.4 -1.7 1 c -0.4 0.6 -0.4 1.4 0 2 c 2.4 4.1 3.1 15.1 0.5 21.6 c -1 2.5 -2.4 4.1 -4.1 4.5 c -0.2 0 -0.4 0 -0.5 -0.1 c -0.2 -0.2 -0.4 -0.4 -0.4 -0.7 C 50 69.5 41.4 50.1 30.8 49.5 c 0 0 -0.1 0 -0.1 0 h -6.8 c -1.1 0 -2 0.9 -2 2 s 0.9 2 2 2 h 6.7 c 6.8 0.5 15.3 15.6 16.9 30.1 c 0.2 1.4 0.9 2.7 2.1 3.6 c 1.1 0.8 2.5 1 3.8 0.6 c 2.9 -0.8 5.2 -3.2 6.7 -6.9 c 2.6 -6.5 2.4 -16.2 0.5 -22.1 l 20.3 0 c 4.4 0 8 -3.6 8 -8 v -1.2 c 0 -2.2 -0.9 -4.2 -2.4 -5.7 c 1.9 -1.5 3.1 -3.7 3.1 -6.3 v -1.2 c 0 -2.3 -1 -4.4 -2.6 -5.9 c 1.7 -1.5 2.8 -3.7 2.8 -6.1 v -1.2 c 0 -4.4 -3.6 -8 -8 -8 h -1 c 0.7 -1.2 1.1 -2.5 1.1 -4 V 10 c 0 -4.4 -3.6 -8 -8 -8 H 49.7 C 49.4 2 49 2 48.7 2 z" style="stroke: none; stroke-width: 1; stroke-dasharray: none; stroke-linecap: butt; stroke-linejoin: miter; stroke-miterlimit: 10; fill: rgba(0, 42, 255, 1); fill-rule: nonzero; opacity: 1;" transform=" matrix(1 0 0 1 0 0) " stroke-linecap="round"/>
	<path d="M 21.4 2 H 4.5 C 2 2 0 4.1 0 6.6 v 47.8 c 0 2.5 2 4.5 4.5 4.5 h 16.9 c 2.5 0 4.5 -2 4.5 -4.5 V 6.6 C 25.9 4.1 23.9 2 21.4 2 z M 4.5 54.9 c -0.3 0 -0.5 -0.2 -0.5 -0.5 V 6.6 C 4 6.3 4.2 6 4.5 6 h 16.9 c 0.3 0 0.5 0.2 0.5 0.5 v 47.8 c 0 0.3 -0.2 0.5 -0.5 0.5 H 4.5 z" style="stroke: none; stroke-width: 1; stroke-dasharray: none; stroke-linecap: butt; stroke-linejoin: miter; stroke-miterlimit: 10; fill: rgba(0, 42, 255, 1); fill-rule: nonzero; opacity: 1;" transform=" matrix(1 0 0 1 0 0) " stroke-linecap="round"/>
	<path d="M 13 7.9 c -1.1 0 -2 0.9 -2 2 v 6.5 c 0 1.1 0.9 2 2 2 s 2 -0.9 2 -2 V 9.9 C 15 8.8 14.1 7.9 13 7.9 z" style="stroke: none; stroke-width: 1; stroke-dasharray: none; stroke-linecap: butt; stroke-linejoin: miter; stroke-miterlimit: 10; fill: rgba(0, 42, 255, 1); fill-rule: nonzero; opacity: 1;" transform=" matrix(1 0 0 1 0 0) " stroke-linecap="round"/>
</g>
</svg>